<svg width="354" height="169" viewBox="0 0 354 169" fill="none" xmlns="http://www.w3.org/2000/svg">
<path d="M162.212 12.8L159.275 33.92H176.329L175.708 38.7765H149.28L152.499 15.8495C152.612 15.1718 152.725 14.6071 152.838 14.1553C152.988 13.7036 153.289 13.3648 153.741 13.1389C154.231 12.913 154.984 12.8 156 12.8H162.212Z" fill="#E0E0E0"/>
<path d="M173.487 48.8658H177.609C180.772 48.8658 183.445 48.7152 185.628 48.414C187.812 48.1128 189.6 47.5293 190.993 46.6634C192.423 45.7599 193.553 44.4611 194.381 42.767C195.247 41.0728 195.868 38.8328 196.245 36.047C196.621 33.4117 196.677 31.247 196.414 29.5528C196.188 27.8211 195.604 26.4846 194.663 25.5434C193.722 24.5646 192.386 23.8681 190.654 23.454C188.922 23.0399 186.757 22.814 184.16 22.7764H180.433H176.706C175.463 22.7764 174.259 22.7952 173.092 22.8328H169.929C168.348 22.8705 167.275 23.2093 166.71 23.8493C166.183 24.4893 165.788 25.5434 165.6 27.0117C165.537 27.1622 165.525 27.4634 165.826 27.4634C166.127 27.4634 172.188 27.5011 175.181 27.5199C175.631 27.4789 175.972 27.4634 176.423 27.4634H177.948C178.475 27.4258 178.983 27.407 179.473 27.407H180.772C182.202 27.407 183.388 27.5011 184.329 27.6893C185.27 27.8399 185.986 28.1975 186.475 28.7622C186.965 29.327 187.247 30.1928 187.322 31.3599C187.435 32.527 187.36 34.0893 187.096 36.047C186.87 37.5152 186.569 38.7764 186.193 39.8305C185.816 40.847 185.289 41.6752 184.612 42.3152C183.972 42.9552 183.162 43.4258 182.183 43.727C181.205 44.0281 180.019 44.1787 178.626 44.1787H177.157H175.407C174.842 44.1411 174.296 44.1223 173.769 44.1223H172.47L163.473 44.1787C163.4 44.1725 163.238 44.2729 163.174 44.7246C162.926 46.4734 162.718 47.9258 162.588 48.8093H165.807H169.534C170.814 48.847 172.132 48.8658 173.487 48.8658Z" fill="#E0E0E0"/>
<circle cx="172" cy="32" r="30.5" stroke="#E0E0E0" stroke-width="3"/>
<path d="M113.25 100.384V103H102.738V86.368H105.762V100.384H113.25ZM119.83 100.96C120.726 100.96 121.406 100.912 121.87 100.816V97.6C121.71 97.552 121.478 97.504 121.174 97.456C120.87 97.408 120.534 97.384 120.166 97.384C119.846 97.384 119.518 97.408 119.182 97.456C118.862 97.504 118.566 97.592 118.294 97.72C118.038 97.848 117.83 98.032 117.67 98.272C117.51 98.496 117.43 98.784 117.43 99.136C117.43 99.824 117.646 100.304 118.078 100.576C118.51 100.832 119.094 100.96 119.83 100.96ZM119.59 90.136C120.55 90.136 121.358 90.256 122.014 90.496C122.67 90.736 123.19 91.072 123.574 91.504C123.974 91.936 124.254 92.464 124.414 93.088C124.59 93.696 124.678 94.368 124.678 95.104V102.712C124.23 102.808 123.55 102.92 122.638 103.048C121.742 103.192 120.726 103.264 119.59 103.264C118.838 103.264 118.15 103.192 117.526 103.048C116.902 102.904 116.366 102.672 115.918 102.352C115.486 102.032 115.142 101.616 114.886 101.104C114.646 100.592 114.526 99.96 114.526 99.208C114.526 98.488 114.662 97.88 114.934 97.384C115.222 96.888 115.606 96.488 116.086 96.184C116.566 95.864 117.118 95.64 117.742 95.512C118.382 95.368 119.046 95.296 119.734 95.296C120.054 95.296 120.39 95.32 120.742 95.368C121.094 95.4 121.47 95.464 121.87 95.56V95.08C121.87 94.744 121.83 94.424 121.75 94.12C121.67 93.816 121.526 93.552 121.318 93.328C121.126 93.088 120.862 92.904 120.526 92.776C120.206 92.648 119.798 92.584 119.302 92.584C118.63 92.584 118.014 92.632 117.454 92.728C116.894 92.824 116.438 92.936 116.086 93.064L115.726 90.712C116.094 90.584 116.63 90.456 117.334 90.328C118.038 90.2 118.79 90.136 119.59 90.136ZM128.235 90.856C128.795 90.696 129.523 90.544 130.419 90.4C131.315 90.256 132.307 90.184 133.395 90.184C134.419 90.184 135.275 90.328 135.963 90.616C136.651 90.888 137.195 91.28 137.595 91.792C138.011 92.288 138.299 92.896 138.459 93.616C138.635 94.32 138.723 95.096 138.723 95.944V103H135.819V96.4C135.819 95.728 135.771 95.16 135.675 94.696C135.595 94.216 135.451 93.832 135.243 93.544C135.051 93.24 134.779 93.024 134.427 92.896C134.091 92.752 133.675 92.68 133.179 92.68C132.811 92.68 132.427 92.704 132.027 92.752C131.627 92.8 131.331 92.84 131.139 92.872V103H128.235V90.856ZM144.554 96.688C144.554 97.968 144.858 98.976 145.466 99.712C146.074 100.432 146.914 100.792 147.986 100.792C148.45 100.792 148.842 100.776 149.162 100.744C149.498 100.696 149.77 100.648 149.978 100.6V93.4C149.722 93.224 149.378 93.064 148.946 92.92C148.53 92.76 148.082 92.68 147.602 92.68C146.546 92.68 145.77 93.04 145.274 93.76C144.794 94.48 144.554 95.456 144.554 96.688ZM152.882 102.616C152.306 102.792 151.578 102.952 150.698 103.096C149.834 103.24 148.922 103.312 147.962 103.312C146.97 103.312 146.082 103.16 145.298 102.856C144.514 102.552 143.842 102.12 143.282 101.56C142.738 100.984 142.314 100.296 142.01 99.496C141.722 98.68 141.578 97.768 141.578 96.76C141.578 95.768 141.698 94.872 141.938 94.072C142.194 93.256 142.562 92.56 143.042 91.984C143.522 91.408 144.106 90.968 144.794 90.664C145.482 90.344 146.274 90.184 147.17 90.184C147.778 90.184 148.314 90.256 148.778 90.4C149.242 90.544 149.642 90.704 149.978 90.88V84.856L152.882 84.376V102.616ZM163.723 93.064C163.483 92.984 163.147 92.904 162.715 92.824C162.299 92.728 161.811 92.68 161.251 92.68C160.931 92.68 160.587 92.712 160.219 92.776C159.867 92.84 159.619 92.896 159.475 92.944V103H156.571V91.048C157.131 90.84 157.827 90.648 158.659 90.472C159.507 90.28 160.443 90.184 161.467 90.184C161.659 90.184 161.883 90.2 162.139 90.232C162.395 90.248 162.651 90.28 162.907 90.328C163.163 90.36 163.411 90.408 163.651 90.472C163.891 90.52 164.083 90.568 164.227 90.616L163.723 93.064ZM176.546 102.616C175.986 102.76 175.258 102.904 174.362 103.048C173.466 103.208 172.482 103.288 171.41 103.288C170.402 103.288 169.554 103.144 168.866 102.856C168.194 102.568 167.65 102.168 167.234 101.656C166.834 101.144 166.546 100.536 166.37 99.832C166.194 99.112 166.106 98.328 166.106 97.48V90.448H169.01V97.024C169.01 98.368 169.202 99.328 169.586 99.904C169.986 100.48 170.674 100.768 171.65 100.768C172.002 100.768 172.37 100.752 172.754 100.72C173.154 100.688 173.45 100.648 173.642 100.6V90.448H176.546V102.616ZM188.571 96.784C188.571 95.488 188.275 94.48 187.683 93.76C187.107 93.04 186.171 92.68 184.875 92.68C184.603 92.68 184.315 92.696 184.011 92.728C183.723 92.744 183.435 92.792 183.147 92.872V100.048C183.403 100.224 183.739 100.392 184.155 100.552C184.587 100.696 185.043 100.768 185.523 100.768C186.579 100.768 187.347 100.408 187.827 99.688C188.323 98.968 188.571 98 188.571 96.784ZM191.547 96.736C191.547 97.696 191.419 98.576 191.163 99.376C190.923 100.176 190.571 100.864 190.107 101.44C189.643 102.016 189.059 102.464 188.355 102.784C187.667 103.104 186.883 103.264 186.003 103.264C185.411 103.264 184.867 103.192 184.371 103.048C183.875 102.904 183.467 102.744 183.147 102.568V107.44H180.243V90.856C180.835 90.696 181.563 90.544 182.427 90.4C183.291 90.256 184.203 90.184 185.163 90.184C186.155 90.184 187.043 90.336 187.827 90.64C188.611 90.944 189.275 91.384 189.819 91.96C190.379 92.52 190.803 93.208 191.091 94.024C191.395 94.824 191.547 95.728 191.547 96.736ZM203.309 100.504C203.485 100.52 203.717 100.536 204.005 100.552C204.293 100.552 204.685 100.552 205.181 100.552C207.213 100.552 208.725 100.04 209.717 99.016C210.725 97.976 211.229 96.528 211.229 94.672C211.229 92.784 210.741 91.336 209.765 90.328C208.789 89.32 207.277 88.816 205.229 88.816C204.333 88.816 203.693 88.84 203.309 88.888V100.504ZM214.397 94.672C214.397 96.112 214.173 97.368 213.725 98.44C213.277 99.496 212.637 100.384 211.805 101.104C210.989 101.808 209.997 102.336 208.829 102.688C207.677 103.024 206.397 103.192 204.989 103.192C204.317 103.192 203.557 103.16 202.709 103.096C201.861 103.048 201.053 102.936 200.285 102.76V86.608C201.053 86.432 201.869 86.32 202.733 86.272C203.597 86.224 204.365 86.2 205.037 86.2C206.429 86.2 207.701 86.368 208.853 86.704C210.005 87.024 210.989 87.536 211.805 88.24C212.637 88.928 213.277 89.808 213.725 90.88C214.173 91.936 214.397 93.2 214.397 94.672ZM221.69 100.96C222.586 100.96 223.266 100.912 223.73 100.816V97.6C223.57 97.552 223.338 97.504 223.034 97.456C222.73 97.408 222.394 97.384 222.026 97.384C221.706 97.384 221.378 97.408 221.042 97.456C220.722 97.504 220.426 97.592 220.154 97.72C219.898 97.848 219.69 98.032 219.53 98.272C219.37 98.496 219.29 98.784 219.29 99.136C219.29 99.824 219.506 100.304 219.938 100.576C220.37 100.832 220.954 100.96 221.69 100.96ZM221.45 90.136C222.41 90.136 223.218 90.256 223.874 90.496C224.53 90.736 225.05 91.072 225.434 91.504C225.834 91.936 226.114 92.464 226.274 93.088C226.45 93.696 226.538 94.368 226.538 95.104V102.712C226.09 102.808 225.41 102.92 224.498 103.048C223.602 103.192 222.586 103.264 221.45 103.264C220.698 103.264 220.01 103.192 219.386 103.048C218.762 102.904 218.226 102.672 217.778 102.352C217.346 102.032 217.002 101.616 216.746 101.104C216.506 100.592 216.386 99.96 216.386 99.208C216.386 98.488 216.522 97.88 216.794 97.384C217.082 96.888 217.466 96.488 217.946 96.184C218.426 95.864 218.978 95.64 219.602 95.512C220.242 95.368 220.906 95.296 221.594 95.296C221.914 95.296 222.25 95.32 222.602 95.368C222.954 95.4 223.33 95.464 223.73 95.56V95.08C223.73 94.744 223.69 94.424 223.61 94.12C223.53 93.816 223.386 93.552 223.178 93.328C222.986 93.088 222.722 92.904 222.386 92.776C222.066 92.648 221.658 92.584 221.162 92.584C220.49 92.584 219.874 92.632 219.314 92.728C218.754 92.824 218.298 92.936 217.946 93.064L217.586 90.712C217.954 90.584 218.49 90.456 219.194 90.328C219.898 90.2 220.65 90.136 221.45 90.136ZM230.094 90.856C230.654 90.696 231.382 90.544 232.278 90.4C233.174 90.256 234.166 90.184 235.254 90.184C236.278 90.184 237.134 90.328 237.822 90.616C238.51 90.888 239.054 91.28 239.454 91.792C239.87 92.288 240.158 92.896 240.318 93.616C240.494 94.32 240.582 95.096 240.582 95.944V103H237.678V96.4C237.678 95.728 237.63 95.16 237.534 94.696C237.454 94.216 237.31 93.832 237.102 93.544C236.91 93.24 236.638 93.024 236.286 92.896C235.95 92.752 235.534 92.68 235.038 92.68C234.67 92.68 234.286 92.704 233.886 92.752C233.486 92.8 233.19 92.84 232.998 92.872V103H230.094V90.856ZM247.277 100.912C248.045 100.912 248.605 100.824 248.957 100.648C249.309 100.456 249.485 100.136 249.485 99.688C249.485 99.272 249.293 98.928 248.909 98.656C248.541 98.384 247.925 98.088 247.061 97.768C246.533 97.576 246.045 97.376 245.597 97.168C245.165 96.944 244.789 96.688 244.469 96.4C244.149 96.112 243.893 95.768 243.701 95.368C243.525 94.952 243.437 94.448 243.437 93.856C243.437 92.704 243.861 91.8 244.709 91.144C245.557 90.472 246.709 90.136 248.165 90.136C248.901 90.136 249.605 90.208 250.277 90.352C250.949 90.48 251.453 90.608 251.789 90.736L251.261 93.088C250.941 92.944 250.533 92.816 250.037 92.704C249.541 92.576 248.965 92.512 248.309 92.512C247.717 92.512 247.237 92.616 246.869 92.824C246.501 93.016 246.317 93.32 246.317 93.736C246.317 93.944 246.349 94.128 246.413 94.288C246.493 94.448 246.621 94.6 246.797 94.744C246.973 94.872 247.205 95.008 247.493 95.152C247.781 95.28 248.133 95.416 248.549 95.56C249.237 95.816 249.821 96.072 250.301 96.328C250.781 96.568 251.173 96.848 251.477 97.168C251.797 97.472 252.029 97.824 252.173 98.224C252.317 98.624 252.389 99.104 252.389 99.664C252.389 100.864 251.941 101.776 251.045 102.4C250.165 103.008 248.901 103.312 247.253 103.312C246.149 103.312 245.261 103.216 244.589 103.024C243.917 102.848 243.445 102.704 243.173 102.592L243.677 100.168C244.109 100.344 244.621 100.512 245.213 100.672C245.821 100.832 246.509 100.912 247.277 100.912Z" fill="#E0E0E0"/>
<path d="M83.8444 132.4C85.5964 132.4 86.9404 132.736 87.8764 133.408C88.8244 134.068 89.2984 135.058 89.2984 136.378C89.2984 137.098 89.1664 137.716 88.9024 138.232C88.6504 138.736 88.2784 139.15 87.7864 139.474C87.3064 139.786 86.7184 140.014 86.0224 140.158C85.3264 140.302 84.5404 140.374 83.6644 140.374H82.2784V145H80.5324V132.706C81.0244 132.586 81.5704 132.508 82.1704 132.472C82.7824 132.424 83.3404 132.4 83.8444 132.4ZM83.9884 133.93C83.2444 133.93 82.6744 133.948 82.2784 133.984V138.88H83.5924C84.1924 138.88 84.7324 138.844 85.2124 138.772C85.6924 138.688 86.0944 138.556 86.4184 138.376C86.7544 138.184 87.0124 137.926 87.1924 137.602C87.3724 137.278 87.4624 136.864 87.4624 136.36C87.4624 135.88 87.3664 135.484 87.1744 135.172C86.9944 134.86 86.7424 134.614 86.4184 134.434C86.1064 134.242 85.7404 134.11 85.3204 134.038C84.9004 133.966 84.4564 133.93 83.9884 133.93ZM98.8275 144.73C98.4435 144.826 97.9335 144.928 97.2975 145.036C96.6735 145.144 95.9475 145.198 95.1195 145.198C94.3995 145.198 93.7935 145.096 93.3015 144.892C92.8095 144.676 92.4135 144.376 92.1135 143.992C91.8135 143.608 91.5975 143.158 91.4655 142.642C91.3335 142.114 91.2675 141.532 91.2675 140.896V135.64H92.9415V140.536C92.9415 141.676 93.1215 142.492 93.4815 142.984C93.8415 143.476 94.4475 143.722 95.2995 143.722C95.4795 143.722 95.6655 143.716 95.8575 143.704C96.0495 143.692 96.2295 143.68 96.3975 143.668C96.5655 143.644 96.7155 143.626 96.8475 143.614C96.9915 143.59 97.0935 143.566 97.1535 143.542V135.64H98.8275V144.73ZM104.519 145.18C103.487 145.156 102.755 144.934 102.323 144.514C101.891 144.094 101.675 143.44 101.675 142.552V131.32L103.349 131.032V142.282C103.349 142.558 103.373 142.786 103.421 142.966C103.469 143.146 103.547 143.29 103.655 143.398C103.763 143.506 103.907 143.59 104.087 143.65C104.267 143.698 104.489 143.74 104.753 143.776L104.519 145.18ZM108.811 143.794C109.495 143.794 109.999 143.704 110.323 143.524C110.659 143.344 110.827 143.056 110.827 142.66C110.827 142.252 110.665 141.928 110.341 141.688C110.017 141.448 109.483 141.178 108.739 140.878C108.379 140.734 108.031 140.59 107.695 140.446C107.371 140.29 107.089 140.11 106.849 139.906C106.609 139.702 106.417 139.456 106.273 139.168C106.129 138.88 106.057 138.526 106.057 138.106C106.057 137.278 106.363 136.624 106.975 136.144C107.587 135.652 108.421 135.406 109.477 135.406C109.741 135.406 110.005 135.424 110.269 135.46C110.533 135.484 110.779 135.52 111.007 135.568C111.235 135.604 111.433 135.646 111.601 135.694C111.781 135.742 111.919 135.784 112.015 135.82L111.709 137.26C111.529 137.164 111.247 137.068 110.863 136.972C110.479 136.864 110.017 136.81 109.477 136.81C109.009 136.81 108.601 136.906 108.253 137.098C107.905 137.278 107.731 137.566 107.731 137.962C107.731 138.166 107.767 138.346 107.839 138.502C107.923 138.658 108.043 138.802 108.199 138.934C108.367 139.054 108.571 139.168 108.811 139.276C109.051 139.384 109.339 139.498 109.675 139.618C110.119 139.786 110.515 139.954 110.863 140.122C111.211 140.278 111.505 140.464 111.745 140.68C111.997 140.896 112.189 141.16 112.321 141.472C112.453 141.772 112.519 142.144 112.519 142.588C112.519 143.452 112.195 144.106 111.547 144.55C110.911 144.994 109.999 145.216 108.811 145.216C107.983 145.216 107.335 145.144 106.867 145C106.399 144.868 106.081 144.766 105.913 144.694L106.219 143.254C106.411 143.326 106.717 143.434 107.137 143.578C107.557 143.722 108.115 143.794 108.811 143.794ZM114.145 140.338C114.145 139.51 114.265 138.79 114.505 138.178C114.745 137.554 115.063 137.038 115.459 136.63C115.855 136.222 116.311 135.916 116.827 135.712C117.343 135.508 117.871 135.406 118.411 135.406C119.671 135.406 120.637 135.802 121.309 136.594C121.981 137.374 122.317 138.568 122.317 140.176C122.317 140.248 122.317 140.344 122.317 140.464C122.317 140.572 122.311 140.674 122.299 140.77H115.891C115.963 141.742 116.245 142.48 116.737 142.984C117.229 143.488 117.997 143.74 119.041 143.74C119.629 143.74 120.121 143.692 120.517 143.596C120.925 143.488 121.231 143.386 121.435 143.29L121.669 144.694C121.465 144.802 121.105 144.916 120.589 145.036C120.085 145.156 119.509 145.216 118.861 145.216C118.045 145.216 117.337 145.096 116.737 144.856C116.149 144.604 115.663 144.262 115.279 143.83C114.895 143.398 114.607 142.888 114.415 142.3C114.235 141.7 114.145 141.046 114.145 140.338ZM120.571 139.42C120.583 138.664 120.391 138.046 119.995 137.566C119.611 137.074 119.077 136.828 118.393 136.828C118.009 136.828 117.667 136.906 117.367 137.062C117.079 137.206 116.833 137.398 116.629 137.638C116.425 137.878 116.263 138.154 116.143 138.466C116.035 138.778 115.963 139.096 115.927 139.42H120.571ZM124.721 135.91C125.105 135.814 125.615 135.712 126.251 135.604C126.887 135.496 127.619 135.442 128.447 135.442C129.191 135.442 129.809 135.55 130.301 135.766C130.793 135.97 131.183 136.264 131.471 136.648C131.771 137.02 131.981 137.47 132.101 137.998C132.221 138.526 132.281 139.108 132.281 139.744V145H130.607V140.104C130.607 139.528 130.565 139.036 130.481 138.628C130.409 138.22 130.283 137.89 130.103 137.638C129.923 137.386 129.683 137.206 129.383 137.098C129.083 136.978 128.711 136.918 128.267 136.918C128.087 136.918 127.901 136.924 127.709 136.936C127.517 136.948 127.331 136.966 127.151 136.99C126.983 137.002 126.827 137.02 126.683 137.044C126.551 137.068 126.455 137.086 126.395 137.098V145H124.721V135.91ZM146.945 141.76C146.945 142.264 146.855 142.732 146.675 143.164C146.507 143.584 146.249 143.956 145.901 144.28C145.565 144.592 145.139 144.832 144.623 145C144.107 145.18 143.513 145.27 142.841 145.27C142.061 145.27 141.407 145.162 140.879 144.946C140.363 144.718 139.949 144.436 139.637 144.1C139.325 143.764 139.103 143.398 138.971 143.002C138.839 142.594 138.773 142.21 138.773 141.85C138.773 141.502 138.827 141.172 138.935 140.86C139.055 140.536 139.205 140.236 139.385 139.96C139.577 139.684 139.793 139.438 140.033 139.222C140.285 138.994 140.549 138.796 140.825 138.628C139.649 137.956 139.061 136.966 139.061 135.658C139.061 135.202 139.151 134.77 139.331 134.362C139.511 133.942 139.763 133.576 140.087 133.264C140.423 132.952 140.825 132.706 141.293 132.526C141.761 132.334 142.283 132.238 142.859 132.238C143.531 132.238 144.107 132.34 144.587 132.544C145.067 132.748 145.457 133.012 145.757 133.336C146.069 133.648 146.291 133.996 146.423 134.38C146.567 134.764 146.639 135.136 146.639 135.496C146.639 135.844 146.585 136.174 146.477 136.486C146.381 136.786 146.243 137.068 146.063 137.332C145.895 137.596 145.697 137.83 145.469 138.034C145.253 138.238 145.025 138.418 144.785 138.574C146.201 139.246 146.921 140.308 146.945 141.76ZM140.465 141.868C140.465 142.084 140.501 142.312 140.573 142.552C140.657 142.78 140.795 142.996 140.987 143.2C141.179 143.392 141.425 143.554 141.725 143.686C142.025 143.818 142.403 143.884 142.859 143.884C143.267 143.884 143.621 143.824 143.921 143.704C144.233 143.584 144.485 143.434 144.677 143.254C144.869 143.062 145.013 142.846 145.109 142.606C145.205 142.366 145.253 142.12 145.253 141.868C145.253 141.484 145.181 141.148 145.037 140.86C144.893 140.572 144.683 140.32 144.407 140.104C144.143 139.888 143.819 139.708 143.435 139.564C143.063 139.408 142.637 139.276 142.157 139.168C141.617 139.468 141.197 139.84 140.897 140.284C140.609 140.728 140.465 141.256 140.465 141.868ZM144.965 135.478C144.965 135.298 144.923 135.1 144.839 134.884C144.767 134.668 144.647 134.47 144.479 134.29C144.311 134.098 144.095 133.942 143.831 133.822C143.567 133.69 143.243 133.624 142.859 133.624C142.475 133.624 142.145 133.684 141.869 133.804C141.605 133.924 141.389 134.08 141.221 134.272C141.053 134.452 140.927 134.656 140.843 134.884C140.771 135.1 140.735 135.316 140.735 135.532C140.735 135.796 140.783 136.06 140.879 136.324C140.975 136.588 141.125 136.834 141.329 137.062C141.533 137.29 141.797 137.494 142.121 137.674C142.457 137.854 142.853 137.998 143.309 138.106C143.813 137.806 144.215 137.458 144.515 137.062C144.815 136.654 144.965 136.126 144.965 135.478ZM155.529 144.028C155.529 144.352 155.421 144.634 155.205 144.874C154.989 145.114 154.695 145.234 154.323 145.234C153.951 145.234 153.657 145.114 153.441 144.874C153.225 144.634 153.117 144.352 153.117 144.028C153.117 143.704 153.225 143.422 153.441 143.182C153.657 142.942 153.951 142.822 154.323 142.822C154.695 142.822 154.989 142.942 155.205 143.182C155.421 143.422 155.529 143.704 155.529 144.028ZM161.425 140.68C161.653 140.152 161.965 139.54 162.361 138.844C162.757 138.136 163.201 137.41 163.693 136.666C164.197 135.922 164.731 135.19 165.295 134.47C165.871 133.75 166.447 133.102 167.023 132.526H168.625V140.446H170.101V141.814H168.625V145H167.005V141.814H161.425V140.68ZM167.005 134.506C166.645 134.89 166.279 135.322 165.907 135.802C165.547 136.27 165.193 136.762 164.845 137.278C164.497 137.794 164.167 138.322 163.855 138.862C163.555 139.402 163.285 139.93 163.045 140.446H167.005V134.506ZM171.765 138.754C171.765 136.666 172.131 135.058 172.863 133.93C173.607 132.802 174.633 132.238 175.941 132.238C177.249 132.238 178.269 132.802 179.001 133.93C179.745 135.058 180.117 136.666 180.117 138.754C180.117 140.842 179.745 142.45 179.001 143.578C178.269 144.706 177.249 145.27 175.941 145.27C174.633 145.27 173.607 144.706 172.863 143.578C172.131 142.45 171.765 140.842 171.765 138.754ZM178.353 138.754C178.353 138.07 178.311 137.422 178.227 136.81C178.155 136.198 178.023 135.664 177.831 135.208C177.651 134.752 177.405 134.392 177.093 134.128C176.781 133.852 176.397 133.714 175.941 133.714C175.485 133.714 175.101 133.852 174.789 134.128C174.477 134.392 174.225 134.752 174.033 135.208C173.853 135.664 173.721 136.198 173.637 136.81C173.565 137.422 173.529 138.07 173.529 138.754C173.529 139.438 173.565 140.086 173.637 140.698C173.721 141.31 173.853 141.844 174.033 142.3C174.225 142.756 174.477 143.122 174.789 143.398C175.101 143.662 175.485 143.794 175.941 143.794C176.397 143.794 176.781 143.662 177.093 143.398C177.405 143.122 177.651 142.756 177.831 142.3C178.023 141.844 178.155 141.31 178.227 140.698C178.311 140.086 178.353 139.438 178.353 138.754ZM181.925 138.754C181.925 136.666 182.291 135.058 183.023 133.93C183.767 132.802 184.793 132.238 186.101 132.238C187.409 132.238 188.429 132.802 189.161 133.93C189.905 135.058 190.277 136.666 190.277 138.754C190.277 140.842 189.905 142.45 189.161 143.578C188.429 144.706 187.409 145.27 186.101 145.27C184.793 145.27 183.767 144.706 183.023 143.578C182.291 142.45 181.925 140.842 181.925 138.754ZM188.513 138.754C188.513 138.07 188.471 137.422 188.387 136.81C188.315 136.198 188.183 135.664 187.991 135.208C187.811 134.752 187.565 134.392 187.253 134.128C186.941 133.852 186.557 133.714 186.101 133.714C185.645 133.714 185.261 133.852 184.949 134.128C184.637 134.392 184.385 134.752 184.193 135.208C184.013 135.664 183.881 136.198 183.797 136.81C183.725 137.422 183.689 138.07 183.689 138.754C183.689 139.438 183.725 140.086 183.797 140.698C183.881 141.31 184.013 141.844 184.193 142.3C184.385 142.756 184.637 143.122 184.949 143.398C185.261 143.662 185.645 143.794 186.101 143.794C186.557 143.794 186.941 143.662 187.253 143.398C187.565 143.122 187.811 142.756 187.991 142.3C188.183 141.844 188.315 141.31 188.387 140.698C188.471 140.086 188.513 139.438 188.513 138.754ZM192.086 138.754C192.086 136.666 192.452 135.058 193.184 133.93C193.928 132.802 194.954 132.238 196.262 132.238C197.57 132.238 198.59 132.802 199.322 133.93C200.066 135.058 200.438 136.666 200.438 138.754C200.438 140.842 200.066 142.45 199.322 143.578C198.59 144.706 197.57 145.27 196.262 145.27C194.954 145.27 193.928 144.706 193.184 143.578C192.452 142.45 192.086 140.842 192.086 138.754ZM198.674 138.754C198.674 138.07 198.632 137.422 198.548 136.81C198.476 136.198 198.344 135.664 198.152 135.208C197.972 134.752 197.726 134.392 197.414 134.128C197.102 133.852 196.718 133.714 196.262 133.714C195.806 133.714 195.422 133.852 195.11 134.128C194.798 134.392 194.546 134.752 194.354 135.208C194.174 135.664 194.042 136.198 193.958 136.81C193.886 137.422 193.85 138.07 193.85 138.754C193.85 139.438 193.886 140.086 193.958 140.698C194.042 141.31 194.174 141.844 194.354 142.3C194.546 142.756 194.798 143.122 195.11 143.398C195.422 143.662 195.806 143.794 196.262 143.794C196.718 143.794 197.102 143.662 197.414 143.398C197.726 143.122 197.972 142.756 198.152 142.3C198.344 141.844 198.476 141.31 198.548 140.698C198.632 140.086 198.674 139.438 198.674 138.754ZM213.162 139.78C213.354 140.02 213.594 140.338 213.882 140.734C214.182 141.118 214.488 141.55 214.8 142.03C215.112 142.498 215.418 142.99 215.718 143.506C216.03 144.022 216.294 144.52 216.51 145H214.602C214.362 144.544 214.098 144.082 213.81 143.614C213.534 143.146 213.252 142.702 212.964 142.282C212.676 141.85 212.388 141.448 212.1 141.076C211.824 140.704 211.572 140.38 211.344 140.104C211.188 140.116 211.026 140.122 210.858 140.122C210.702 140.122 210.54 140.122 210.372 140.122H208.806V145H207.06V132.706C207.552 132.586 208.098 132.508 208.698 132.472C209.31 132.424 209.868 132.4 210.372 132.4C212.124 132.4 213.456 132.73 214.368 133.39C215.292 134.05 215.754 135.034 215.754 136.342C215.754 137.17 215.532 137.878 215.088 138.466C214.656 139.054 214.014 139.492 213.162 139.78ZM210.516 133.93C209.772 133.93 209.202 133.948 208.806 133.984V138.682H210.048C210.648 138.682 211.188 138.652 211.668 138.592C212.148 138.532 212.55 138.418 212.874 138.25C213.21 138.082 213.468 137.848 213.648 137.548C213.828 137.236 213.918 136.828 213.918 136.324C213.918 135.856 213.828 135.466 213.648 135.154C213.468 134.842 213.222 134.596 212.91 134.416C212.61 134.236 212.25 134.11 211.83 134.038C211.422 133.966 210.984 133.93 210.516 133.93ZM226.534 140.32C226.534 141.064 226.426 141.736 226.21 142.336C225.994 142.936 225.688 143.452 225.292 143.884C224.908 144.316 224.446 144.652 223.906 144.892C223.366 145.12 222.778 145.234 222.142 145.234C221.506 145.234 220.918 145.12 220.378 144.892C219.838 144.652 219.37 144.316 218.974 143.884C218.59 143.452 218.29 142.936 218.074 142.336C217.858 141.736 217.75 141.064 217.75 140.32C217.75 139.588 217.858 138.922 218.074 138.322C218.29 137.71 218.59 137.188 218.974 136.756C219.37 136.324 219.838 135.994 220.378 135.766C220.918 135.526 221.506 135.406 222.142 135.406C222.778 135.406 223.366 135.526 223.906 135.766C224.446 135.994 224.908 136.324 225.292 136.756C225.688 137.188 225.994 137.71 226.21 138.322C226.426 138.922 226.534 139.588 226.534 140.32ZM224.788 140.32C224.788 139.264 224.548 138.43 224.068 137.818C223.6 137.194 222.958 136.882 222.142 136.882C221.326 136.882 220.678 137.194 220.198 137.818C219.73 138.43 219.496 139.264 219.496 140.32C219.496 141.376 219.73 142.216 220.198 142.84C220.678 143.452 221.326 143.758 222.142 143.758C222.958 143.758 223.6 143.452 224.068 142.84C224.548 142.216 224.788 141.376 224.788 140.32ZM231.067 143.794C231.751 143.794 232.255 143.704 232.579 143.524C232.915 143.344 233.083 143.056 233.083 142.66C233.083 142.252 232.921 141.928 232.597 141.688C232.273 141.448 231.739 141.178 230.995 140.878C230.635 140.734 230.287 140.59 229.951 140.446C229.627 140.29 229.345 140.11 229.105 139.906C228.865 139.702 228.673 139.456 228.529 139.168C228.385 138.88 228.313 138.526 228.313 138.106C228.313 137.278 228.619 136.624 229.231 136.144C229.843 135.652 230.677 135.406 231.733 135.406C231.997 135.406 232.261 135.424 232.525 135.46C232.789 135.484 233.035 135.52 233.263 135.568C233.491 135.604 233.689 135.646 233.857 135.694C234.037 135.742 234.175 135.784 234.271 135.82L233.965 137.26C233.785 137.164 233.503 137.068 233.119 136.972C232.735 136.864 232.273 136.81 231.733 136.81C231.265 136.81 230.857 136.906 230.509 137.098C230.161 137.278 229.987 137.566 229.987 137.962C229.987 138.166 230.023 138.346 230.095 138.502C230.179 138.658 230.299 138.802 230.455 138.934C230.623 139.054 230.827 139.168 231.067 139.276C231.307 139.384 231.595 139.498 231.931 139.618C232.375 139.786 232.771 139.954 233.119 140.122C233.467 140.278 233.761 140.464 234.001 140.68C234.253 140.896 234.445 141.16 234.577 141.472C234.709 141.772 234.775 142.144 234.775 142.588C234.775 143.452 234.451 144.106 233.803 144.55C233.167 144.994 232.255 145.216 231.067 145.216C230.239 145.216 229.591 145.144 229.123 145C228.655 144.868 228.337 144.766 228.169 144.694L228.475 143.254C228.667 143.326 228.973 143.434 229.393 143.578C229.813 143.722 230.371 143.794 231.067 143.794ZM240.306 139.852C240.666 140.128 241.044 140.47 241.44 140.878C241.848 141.286 242.244 141.73 242.628 142.21C243.024 142.678 243.396 143.158 243.744 143.65C244.092 144.13 244.386 144.58 244.626 145H242.664C242.412 144.58 242.118 144.154 241.782 143.722C241.458 143.278 241.116 142.858 240.756 142.462C240.396 142.054 240.03 141.682 239.658 141.346C239.286 141.01 238.932 140.728 238.596 140.5V145H236.922V131.32L238.596 131.032V139.564C238.884 139.276 239.202 138.958 239.55 138.61C239.898 138.262 240.24 137.908 240.576 137.548C240.912 137.188 241.23 136.846 241.53 136.522C241.83 136.186 242.088 135.892 242.304 135.64H244.266C243.99 135.94 243.69 136.27 243.366 136.63C243.042 136.99 242.706 137.356 242.358 137.728C242.01 138.088 241.656 138.454 241.296 138.826C240.948 139.186 240.618 139.528 240.306 139.852ZM248.001 145H246.327V135.64H248.001V145ZM247.155 133.948C246.855 133.948 246.597 133.852 246.381 133.66C246.177 133.456 246.075 133.186 246.075 132.85C246.075 132.514 246.177 132.25 246.381 132.058C246.597 131.854 246.855 131.752 247.155 131.752C247.455 131.752 247.707 131.854 247.911 132.058C248.127 132.25 248.235 132.514 248.235 132.85C248.235 133.186 248.127 133.456 247.911 133.66C247.707 133.852 247.455 133.948 247.155 133.948ZM253.687 145.18C252.655 145.156 251.923 144.934 251.491 144.514C251.059 144.094 250.843 143.44 250.843 142.552V131.32L252.517 131.032V142.282C252.517 142.558 252.541 142.786 252.589 142.966C252.637 143.146 252.715 143.29 252.823 143.398C252.931 143.506 253.075 143.59 253.255 143.65C253.435 143.698 253.657 143.74 253.921 143.776L253.687 145.18ZM261.849 137.62C261.645 137.452 261.351 137.29 260.967 137.134C260.583 136.978 260.163 136.9 259.707 136.9C259.227 136.9 258.813 136.99 258.465 137.17C258.129 137.338 257.853 137.578 257.637 137.89C257.421 138.19 257.265 138.55 257.169 138.97C257.073 139.39 257.025 139.84 257.025 140.32C257.025 141.412 257.295 142.258 257.835 142.858C258.375 143.446 259.095 143.74 259.995 143.74C260.451 143.74 260.829 143.722 261.129 143.686C261.441 143.638 261.681 143.59 261.849 143.542V137.62ZM261.849 131.32L263.523 131.032V144.73C263.139 144.838 262.647 144.946 262.047 145.054C261.447 145.162 260.757 145.216 259.977 145.216C259.257 145.216 258.609 145.102 258.033 144.874C257.457 144.646 256.965 144.322 256.557 143.902C256.149 143.482 255.831 142.972 255.603 142.372C255.387 141.76 255.279 141.076 255.279 140.32C255.279 139.6 255.369 138.94 255.549 138.34C255.741 137.74 256.017 137.224 256.377 136.792C256.737 136.36 257.175 136.024 257.691 135.784C258.219 135.544 258.819 135.424 259.491 135.424C260.031 135.424 260.505 135.496 260.913 135.64C261.333 135.784 261.645 135.922 261.849 136.054V131.32ZM265.879 140.338C265.879 139.51 265.999 138.79 266.239 138.178C266.479 137.554 266.797 137.038 267.193 136.63C267.589 136.222 268.045 135.916 268.561 135.712C269.077 135.508 269.605 135.406 270.145 135.406C271.405 135.406 272.371 135.802 273.043 136.594C273.715 137.374 274.051 138.568 274.051 140.176C274.051 140.248 274.051 140.344 274.051 140.464C274.051 140.572 274.045 140.674 274.033 140.77H267.625C267.697 141.742 267.979 142.48 268.471 142.984C268.963 143.488 269.731 143.74 270.775 143.74C271.363 143.74 271.855 143.692 272.251 143.596C272.659 143.488 272.965 143.386 273.169 143.29L273.403 144.694C273.199 144.802 272.839 144.916 272.323 145.036C271.819 145.156 271.243 145.216 270.595 145.216C269.779 145.216 269.071 145.096 268.471 144.856C267.883 144.604 267.397 144.262 267.013 143.83C266.629 143.398 266.341 142.888 266.149 142.3C265.969 141.7 265.879 141.046 265.879 140.338ZM272.305 139.42C272.317 138.664 272.125 138.046 271.729 137.566C271.345 137.074 270.811 136.828 270.127 136.828C269.743 136.828 269.401 136.906 269.101 137.062C268.813 137.206 268.567 137.398 268.363 137.638C268.159 137.878 267.997 138.154 267.877 138.466C267.769 138.778 267.697 139.096 267.661 139.42H272.305ZM129.305 153.526V155.038H125.381V166H123.635V155.038H119.711V153.526H129.305ZM133.849 166.18C132.817 166.156 132.085 165.934 131.653 165.514C131.221 165.094 131.005 164.44 131.005 163.552V152.32L132.679 152.032V163.282C132.679 163.558 132.703 163.786 132.751 163.966C132.799 164.146 132.877 164.29 132.985 164.398C133.093 164.506 133.237 164.59 133.417 164.65C133.597 164.698 133.819 164.74 134.083 164.776L133.849 166.18ZM139.616 152.032C140.108 152.032 140.528 152.068 140.876 152.14C141.236 152.212 141.488 152.278 141.632 152.338L141.326 153.778C141.182 153.706 140.978 153.64 140.714 153.58C140.45 153.508 140.126 153.472 139.742 153.472C138.962 153.472 138.416 153.688 138.104 154.12C137.792 154.54 137.636 155.11 137.636 155.83V156.64H141.236V158.044H137.636V166H135.962V155.794C135.962 154.594 136.256 153.67 136.844 153.022C137.432 152.362 138.356 152.032 139.616 152.032ZM143.954 165.028C143.954 165.352 143.846 165.634 143.63 165.874C143.414 166.114 143.12 166.234 142.748 166.234C142.376 166.234 142.082 166.114 141.866 165.874C141.65 165.634 141.542 165.352 141.542 165.028C141.542 164.704 141.65 164.422 141.866 164.182C142.082 163.942 142.376 163.822 142.748 163.822C143.12 163.822 143.414 163.942 143.63 164.182C143.846 164.422 143.954 164.704 143.954 165.028ZM153.198 164.776C154.266 164.776 155.028 164.566 155.484 164.146C155.952 163.726 156.186 163.162 156.186 162.454C156.186 161.998 156.09 161.614 155.898 161.302C155.706 160.99 155.454 160.744 155.142 160.564C154.83 160.372 154.464 160.24 154.044 160.168C153.636 160.084 153.216 160.042 152.784 160.042H152.352V158.674H152.946C153.246 158.674 153.552 158.644 153.864 158.584C154.188 158.524 154.482 158.416 154.746 158.26C155.01 158.104 155.226 157.894 155.394 157.63C155.562 157.354 155.646 157.012 155.646 156.604C155.646 156.268 155.586 155.98 155.466 155.74C155.346 155.5 155.184 155.302 154.98 155.146C154.788 154.99 154.56 154.882 154.296 154.822C154.044 154.75 153.774 154.714 153.486 154.714C152.91 154.714 152.418 154.798 152.01 154.966C151.614 155.134 151.278 155.308 151.002 155.488L150.354 154.21C150.498 154.114 150.678 154.012 150.894 153.904C151.122 153.784 151.374 153.676 151.65 153.58C151.926 153.484 152.22 153.406 152.532 153.346C152.856 153.274 153.192 153.238 153.54 153.238C154.2 153.238 154.77 153.322 155.25 153.49C155.73 153.646 156.126 153.874 156.438 154.174C156.75 154.462 156.984 154.81 157.14 155.218C157.296 155.614 157.374 156.046 157.374 156.514C157.374 157.162 157.188 157.72 156.816 158.188C156.444 158.644 155.994 158.992 155.466 159.232C155.79 159.328 156.102 159.466 156.402 159.646C156.702 159.826 156.96 160.054 157.176 160.33C157.404 160.606 157.584 160.924 157.716 161.284C157.86 161.644 157.932 162.046 157.932 162.49C157.932 163.03 157.836 163.534 157.644 164.002C157.464 164.458 157.176 164.854 156.78 165.19C156.396 165.526 155.91 165.79 155.322 165.982C154.734 166.174 154.038 166.27 153.234 166.27C152.922 166.27 152.598 166.246 152.262 166.198C151.938 166.15 151.632 166.09 151.344 166.018C151.056 165.946 150.804 165.874 150.588 165.802C150.372 165.73 150.216 165.67 150.12 165.622L150.444 164.164C150.648 164.26 150.984 164.386 151.452 164.542C151.932 164.698 152.514 164.776 153.198 164.776ZM162.872 158.332C164.684 158.404 166.01 158.8 166.85 159.52C167.702 160.24 168.128 161.218 168.128 162.454C168.128 163.006 168.032 163.516 167.84 163.984C167.66 164.452 167.378 164.854 166.994 165.19C166.622 165.526 166.148 165.79 165.572 165.982C164.996 166.174 164.312 166.27 163.52 166.27C163.208 166.27 162.89 166.246 162.566 166.198C162.242 166.15 161.942 166.09 161.666 166.018C161.39 165.946 161.144 165.874 160.928 165.802C160.712 165.73 160.556 165.67 160.46 165.622L160.784 164.164C160.988 164.26 161.318 164.386 161.774 164.542C162.242 164.698 162.812 164.776 163.484 164.776C164.024 164.776 164.474 164.716 164.834 164.596C165.206 164.476 165.506 164.314 165.734 164.11C165.962 163.906 166.124 163.672 166.22 163.408C166.328 163.132 166.382 162.844 166.382 162.544C166.382 162.088 166.304 161.686 166.148 161.338C165.992 160.978 165.716 160.678 165.32 160.438C164.924 160.198 164.396 160.018 163.736 159.898C163.076 159.766 162.242 159.7 161.234 159.7C161.306 159.112 161.36 158.56 161.396 158.044C161.444 157.528 161.486 157.024 161.522 156.532C161.558 156.04 161.588 155.554 161.612 155.074C161.636 154.582 161.66 154.066 161.684 153.526H167.696V154.948H163.142C163.13 155.128 163.112 155.374 163.088 155.686C163.064 155.986 163.04 156.304 163.016 156.64C162.992 156.964 162.968 157.282 162.944 157.594C162.92 157.906 162.896 158.152 162.872 158.332ZM170.17 161.68C170.398 161.152 170.71 160.54 171.106 159.844C171.502 159.136 171.946 158.41 172.438 157.666C172.942 156.922 173.476 156.19 174.04 155.47C174.616 154.75 175.192 154.102 175.768 153.526H177.37V161.446H178.846V162.814H177.37V166H175.75V162.814H170.17V161.68ZM175.75 155.506C175.39 155.89 175.024 156.322 174.652 156.802C174.292 157.27 173.938 157.762 173.59 158.278C173.242 158.794 172.912 159.322 172.6 159.862C172.3 160.402 172.03 160.93 171.79 161.446H175.75V155.506ZM180.51 159.754C180.51 157.666 180.876 156.058 181.608 154.93C182.352 153.802 183.378 153.238 184.686 153.238C185.994 153.238 187.014 153.802 187.746 154.93C188.49 156.058 188.862 157.666 188.862 159.754C188.862 161.842 188.49 163.45 187.746 164.578C187.014 165.706 185.994 166.27 184.686 166.27C183.378 166.27 182.352 165.706 181.608 164.578C180.876 163.45 180.51 161.842 180.51 159.754ZM187.098 159.754C187.098 159.07 187.056 158.422 186.972 157.81C186.9 157.198 186.768 156.664 186.576 156.208C186.396 155.752 186.15 155.392 185.838 155.128C185.526 154.852 185.142 154.714 184.686 154.714C184.23 154.714 183.846 154.852 183.534 155.128C183.222 155.392 182.97 155.752 182.778 156.208C182.598 156.664 182.466 157.198 182.382 157.81C182.31 158.422 182.274 159.07 182.274 159.754C182.274 160.438 182.31 161.086 182.382 161.698C182.466 162.31 182.598 162.844 182.778 163.3C182.97 163.756 183.222 164.122 183.534 164.398C183.846 164.662 184.23 164.794 184.686 164.794C185.142 164.794 185.526 164.662 185.838 164.398C186.15 164.122 186.396 163.756 186.576 163.3C186.768 162.844 186.9 162.31 186.972 161.698C187.056 161.086 187.098 160.438 187.098 159.754ZM194.657 161.68C194.885 161.152 195.197 160.54 195.593 159.844C195.989 159.136 196.433 158.41 196.925 157.666C197.429 156.922 197.963 156.19 198.527 155.47C199.103 154.75 199.679 154.102 200.255 153.526H201.857V161.446H203.333V162.814H201.857V166H200.237V162.814H194.657V161.68ZM200.237 155.506C199.877 155.89 199.511 156.322 199.139 156.802C198.779 157.27 198.425 157.762 198.077 158.278C197.729 158.794 197.399 159.322 197.087 159.862C196.787 160.402 196.517 160.93 196.277 161.446H200.237V155.506ZM207.679 158.332C209.491 158.404 210.817 158.8 211.657 159.52C212.509 160.24 212.935 161.218 212.935 162.454C212.935 163.006 212.839 163.516 212.647 163.984C212.467 164.452 212.185 164.854 211.801 165.19C211.429 165.526 210.955 165.79 210.379 165.982C209.803 166.174 209.119 166.27 208.327 166.27C208.015 166.27 207.697 166.246 207.373 166.198C207.049 166.15 206.749 166.09 206.473 166.018C206.197 165.946 205.951 165.874 205.735 165.802C205.519 165.73 205.363 165.67 205.267 165.622L205.591 164.164C205.795 164.26 206.125 164.386 206.581 164.542C207.049 164.698 207.619 164.776 208.291 164.776C208.831 164.776 209.281 164.716 209.641 164.596C210.013 164.476 210.313 164.314 210.541 164.11C210.769 163.906 210.931 163.672 211.027 163.408C211.135 163.132 211.189 162.844 211.189 162.544C211.189 162.088 211.111 161.686 210.955 161.338C210.799 160.978 210.523 160.678 210.127 160.438C209.731 160.198 209.203 160.018 208.543 159.898C207.883 159.766 207.049 159.7 206.041 159.7C206.113 159.112 206.167 158.56 206.203 158.044C206.251 157.528 206.293 157.024 206.329 156.532C206.365 156.04 206.395 155.554 206.419 155.074C206.443 154.582 206.467 154.066 206.491 153.526H212.503V154.948H207.949C207.937 155.128 207.919 155.374 207.895 155.686C207.871 155.986 207.847 156.304 207.823 156.64C207.799 156.964 207.775 157.282 207.751 157.594C207.727 157.906 207.703 158.152 207.679 158.332ZM217.839 158.332C219.651 158.404 220.977 158.8 221.817 159.52C222.669 160.24 223.095 161.218 223.095 162.454C223.095 163.006 222.999 163.516 222.807 163.984C222.627 164.452 222.345 164.854 221.961 165.19C221.589 165.526 221.115 165.79 220.539 165.982C219.963 166.174 219.279 166.27 218.487 166.27C218.175 166.27 217.857 166.246 217.533 166.198C217.209 166.15 216.909 166.09 216.633 166.018C216.357 165.946 216.111 165.874 215.895 165.802C215.679 165.73 215.523 165.67 215.427 165.622L215.751 164.164C215.955 164.26 216.285 164.386 216.741 164.542C217.209 164.698 217.779 164.776 218.451 164.776C218.991 164.776 219.441 164.716 219.801 164.596C220.173 164.476 220.473 164.314 220.701 164.11C220.929 163.906 221.091 163.672 221.187 163.408C221.295 163.132 221.349 162.844 221.349 162.544C221.349 162.088 221.271 161.686 221.115 161.338C220.959 160.978 220.683 160.678 220.287 160.438C219.891 160.198 219.363 160.018 218.703 159.898C218.043 159.766 217.209 159.7 216.201 159.7C216.273 159.112 216.327 158.56 216.363 158.044C216.411 157.528 216.453 157.024 216.489 156.532C216.525 156.04 216.555 155.554 216.579 155.074C216.603 154.582 216.627 154.066 216.651 153.526H222.663V154.948H218.109C218.097 155.128 218.079 155.374 218.055 155.686C218.031 155.986 218.007 156.304 217.983 156.64C217.959 156.964 217.935 157.282 217.911 157.594C217.887 157.906 217.863 158.152 217.839 158.332ZM225.317 159.754C225.317 157.666 225.683 156.058 226.415 154.93C227.159 153.802 228.185 153.238 229.493 153.238C230.801 153.238 231.821 153.802 232.553 154.93C233.297 156.058 233.669 157.666 233.669 159.754C233.669 161.842 233.297 163.45 232.553 164.578C231.821 165.706 230.801 166.27 229.493 166.27C228.185 166.27 227.159 165.706 226.415 164.578C225.683 163.45 225.317 161.842 225.317 159.754ZM231.905 159.754C231.905 159.07 231.863 158.422 231.779 157.81C231.707 157.198 231.575 156.664 231.383 156.208C231.203 155.752 230.957 155.392 230.645 155.128C230.333 154.852 229.949 154.714 229.493 154.714C229.037 154.714 228.653 154.852 228.341 155.128C228.029 155.392 227.777 155.752 227.585 156.208C227.405 156.664 227.273 157.198 227.189 157.81C227.117 158.422 227.081 159.07 227.081 159.754C227.081 160.438 227.117 161.086 227.189 161.698C227.273 162.31 227.405 162.844 227.585 163.3C227.777 163.756 228.029 164.122 228.341 164.398C228.653 164.662 229.037 164.794 229.493 164.794C229.949 164.794 230.333 164.662 230.645 164.398C230.957 164.122 231.203 163.756 231.383 163.3C231.575 162.844 231.707 162.31 231.779 161.698C231.863 161.086 231.905 160.438 231.905 159.754Z" fill="#E0E0E0"/>
</svg>
